<svg width="313" height="47" viewBox="0 0 313 47" fill="none" xmlns="http://www.w3.org/2000/svg">
<path d="M27.8929 3.19895H42.9785V5.53665C42.3628 5.90576 41.6649 6.27487 40.885 6.64398C40.1461 6.97208 39.3867 7.19764 38.6068 7.32068L26.6614 28.2369V42.1401C27.4824 42.2221 28.2829 42.4476 29.0628 42.8168C29.8838 43.1449 30.6432 43.514 31.341 43.9241V46.2618H12.3763V43.9241C13.0742 43.555 13.8541 43.2064 14.7161 42.8783C15.5782 42.5502 16.4812 42.3041 17.4254 42.1401V28.2984L4.98748 7.32068C4.04334 7.15663 3.14026 6.91056 2.27823 6.58246C1.45725 6.25436 0.697836 5.90576 0 5.53665V3.19895H20.1962V5.53665C19.6215 5.86475 18.9647 6.19284 18.2258 6.52094C17.487 6.84904 16.6249 7.11562 15.6397 7.32068L24.4448 23.8076L32.8188 7.32068C31.8747 7.11562 30.9716 6.84904 30.1096 6.52094C29.2475 6.19284 28.5087 5.86475 27.8929 5.53665V3.19895Z" fill="black"/>
<path d="M34.579 30.8822C34.579 28.3805 34.9484 26.1453 35.6873 24.1767C36.4672 22.1671 37.555 20.4651 38.9507 19.0707C40.3874 17.6763 42.1115 16.6099 44.1229 15.8717C46.1343 15.1335 48.4125 14.7644 50.9576 14.7644C53.831 14.7644 56.294 15.1745 58.3464 15.9948C60.4399 16.774 62.1435 17.8813 63.4571 19.3168C64.8117 20.7112 65.7969 22.4132 66.4126 24.4228C67.0283 26.3914 67.3362 28.5445 67.3362 30.8822C67.3362 33.3839 66.9668 35.6396 66.2279 37.6492C65.489 39.6178 64.4012 41.2993 62.9645 42.6937C61.5688 44.0881 59.8447 45.1545 57.7923 45.8927C55.7809 46.6309 53.5026 47 50.9576 47C48.1662 47 45.7443 46.6104 43.6919 45.8312C41.6394 45.0109 39.9359 43.9036 38.5813 42.5092C37.2266 41.0737 36.2209 39.3717 35.5641 37.4031C34.9074 35.3935 34.579 33.2199 34.579 30.8822ZM44.1229 30.8822C44.1229 32.7277 44.2255 34.4298 44.4308 35.9882C44.6771 37.5057 45.0876 38.7976 45.6622 39.8639C46.2369 40.9302 47.0169 41.7709 48.002 42.3861C48.9872 42.9603 50.2597 43.2474 51.8196 43.2474C52.7227 43.2474 53.5437 43.0423 54.2826 42.6322C55.0215 42.1811 55.6577 41.4839 56.1914 40.5406C56.725 39.5563 57.115 38.2849 57.3613 36.7264C57.6486 35.127 57.7923 33.1789 57.7923 30.8822C57.7923 28.9956 57.6691 27.2936 57.4228 25.7762C57.2176 24.2587 56.8276 22.9668 56.2529 21.9005C55.7193 20.8342 54.9804 20.014 54.0363 19.4398C53.0921 18.8246 51.9017 18.517 50.465 18.517C49.3977 18.517 48.4741 18.7426 47.6942 19.1937C46.9142 19.6038 46.2575 20.301 45.7238 21.2853C45.1902 22.2286 44.7797 23.5 44.4923 25.0995C44.246 26.6579 44.1229 28.5855 44.1229 30.8822Z" fill="black"/>
<path d="M69.2912 34.0812C69.2912 31.4974 69.3527 29.0982 69.4759 26.8835C69.599 24.6688 69.6606 22.3312 69.6606 19.8704L65.5967 19.3783V16.9791C66.2535 16.733 67.054 16.4869 67.9981 16.2408C68.9833 15.9948 69.989 15.7897 71.0152 15.6257C72.0415 15.4206 73.0266 15.2565 73.9708 15.1335C74.956 14.9695 75.7769 14.8464 76.4337 14.7644H78.5272C78.5272 17.8403 78.4657 20.8752 78.3425 23.8691C78.2194 26.822 78.1578 29.7339 78.1578 32.6047C78.1578 35.9677 78.4862 38.3874 79.143 39.8639C79.8408 41.3403 81.1133 42.0785 82.9606 42.0785C84.2331 42.0785 85.403 41.6069 86.4703 40.6636C87.5786 39.6793 88.4817 38.1209 89.1795 35.9882V19.8704L85.1772 19.3783V16.9791C85.7929 16.733 86.5524 16.4869 87.4554 16.2408C88.3996 15.9948 89.3642 15.7897 90.3494 15.6257C91.3756 15.4206 92.3813 15.2565 93.3665 15.1335C94.3517 14.9695 95.2137 14.8464 95.9526 14.7644H98.0461V41.894L102.11 42.3861V44.5393C101.535 44.7853 100.817 45.0314 99.9549 45.2775C99.0929 45.5236 98.1898 45.7696 97.2457 46.0157C96.3015 46.2208 95.3574 46.3848 94.4133 46.5079C93.5102 46.6719 92.6892 46.7949 91.9503 46.877H89.8568L89.4258 39.5563H89.1795C88.9743 40.4175 88.6048 41.2993 88.0712 42.2016C87.5375 43.0628 86.8397 43.8626 85.9777 44.6008C85.1567 45.298 84.1715 45.8722 83.0221 46.3233C81.8727 46.7744 80.6002 47 79.2046 47C77.6447 47 76.249 46.7949 75.0175 46.3848C73.8271 46.0157 72.8009 45.339 71.9388 44.3547C71.0768 43.3704 70.42 42.058 69.9685 40.4175C69.5169 38.736 69.2912 36.6239 69.2912 34.0812Z" fill="black"/>
<path d="M116.769 22.5772C116.276 22.8233 115.702 23.2334 115.045 23.8076C114.388 24.3818 113.793 25.325 113.259 26.6374V42.3861C114.08 42.4682 114.901 42.6322 115.722 42.8783C116.543 43.0833 117.364 43.4114 118.185 43.8626V46.2618H100.329V43.8626C101.068 43.4524 101.765 43.1449 102.422 42.9398C103.079 42.7347 103.736 42.5502 104.393 42.3861V19.8704L100.329 19.3783V16.9791C100.985 16.692 101.786 16.4254 102.73 16.1793C103.715 15.9332 104.721 15.7282 105.747 15.5641C106.773 15.3591 107.759 15.195 108.703 15.072C109.688 14.949 110.509 14.8464 111.166 14.7644H113.259V22.9463H113.505C113.834 22.0441 114.306 21.1008 114.922 20.1165C115.578 19.1322 116.338 18.2299 117.2 17.4097C118.062 16.5894 119.006 15.9332 120.032 15.4411C121.059 14.949 122.126 14.7234 123.234 14.7644C123.686 15.3386 124.076 16.1588 124.404 17.2251C124.732 18.2504 124.999 19.2347 125.204 20.178V22.5772H116.769Z" fill="black"/>
<path d="M136.637 42.1401C137.745 42.3041 138.833 42.5502 139.9 42.8783C141.008 43.1654 141.993 43.514 142.855 43.9241V46.2618H122.351V43.9241C123.131 43.473 123.952 43.1038 124.814 42.8168C125.717 42.5297 126.579 42.3041 127.4 42.1401V7.32068C126.456 7.15663 125.553 6.93106 124.691 6.64398C123.829 6.31588 123.049 5.94677 122.351 5.53665V3.19895H130.11C131.752 3.19895 133.619 3.11693 135.713 2.95288C137.847 2.78883 139.797 2.70681 141.562 2.70681C143.738 2.70681 145.852 2.93237 147.905 3.38351C149.998 3.79363 151.845 4.51134 153.446 5.53665C155.088 6.56195 156.402 7.93586 157.387 9.65838C158.372 11.3399 158.865 13.452 158.865 15.9948C158.865 18.4145 158.372 20.5061 157.387 22.2696C156.443 24.0332 155.17 25.4891 153.569 26.6374C151.968 27.7858 150.121 28.647 148.028 29.2212C145.934 29.7544 143.779 30.0209 141.562 30.0209C141.357 30.0209 141.029 30.0209 140.577 30.0209C140.126 30.0209 139.633 30.0209 139.099 30.0209C138.607 29.9799 138.114 29.9594 137.622 29.9594C137.17 29.9184 136.842 29.8774 136.637 29.8364V42.1401ZM139.962 6.7055C139.141 6.7055 138.484 6.74651 137.991 6.82853C137.54 6.86955 137.088 6.95157 136.637 7.07461V25.7762C137.006 25.8992 137.56 25.9812 138.299 26.0223C139.038 26.0223 139.633 26.0223 140.085 26.0223C141.193 26.0223 142.26 25.8377 143.286 25.4686C144.313 25.0995 145.216 24.5253 145.996 23.7461C146.817 22.9668 147.474 21.962 147.966 20.7317C148.459 19.5013 148.705 18.0249 148.705 16.3024C148.705 13.0214 147.905 10.6017 146.304 9.04319C144.703 7.48473 142.589 6.7055 139.962 6.7055Z" fill="black"/>
<path d="M194.864 46.2618H178.547V43.8626C179.039 43.5755 179.552 43.3089 180.086 43.0628C180.62 42.8168 181.235 42.5912 181.933 42.3861V29.9594C181.933 26.4324 181.584 23.8486 180.886 22.2081C180.23 20.5266 178.916 19.6859 176.946 19.6859C175.304 19.6859 173.908 20.26 172.759 21.4084C171.609 22.5157 170.788 23.8076 170.296 25.284V42.3861C170.953 42.5502 171.527 42.7347 172.02 42.9398C172.553 43.1449 173.108 43.4524 173.682 43.8626V46.2618H157.365V43.8626C158.638 43.2064 159.992 42.7142 161.429 42.3861V5.10602L156.749 4.61387V2.21466C157.365 1.96859 158.145 1.72251 159.089 1.47644C160.074 1.23037 161.101 1.02531 162.168 0.861256C163.235 0.656196 164.303 0.492146 165.37 0.369109C166.437 0.20506 167.381 0.0820234 168.202 0H170.296V21.716H170.357C170.768 20.7727 171.322 19.8909 172.02 19.0707C172.718 18.2094 173.498 17.4712 174.36 16.856C175.263 16.1998 176.227 15.6872 177.254 15.3181C178.28 14.949 179.368 14.7644 180.517 14.7644C182.159 14.7644 183.616 14.9695 184.889 15.3796C186.202 15.7487 187.29 16.4254 188.152 17.4097C189.014 18.394 189.671 19.7269 190.122 21.4084C190.574 23.0489 190.8 25.1405 190.8 27.6832V42.3861C191.498 42.5502 192.195 42.7347 192.893 42.9398C193.591 43.1449 194.248 43.4524 194.864 43.8626V46.2618Z" fill="black"/>
<path d="M193.18 30.8822C193.18 28.3805 193.549 26.1453 194.288 24.1767C195.068 22.1671 196.156 20.4651 197.551 19.0707C198.988 17.6763 200.712 16.6099 202.723 15.8717C204.735 15.1335 207.013 14.7644 209.558 14.7644C212.432 14.7644 214.895 15.1745 216.947 15.9948C219.041 16.774 220.744 17.8813 222.058 19.3168C223.412 20.7112 224.397 22.4132 225.013 24.4228C225.629 26.3914 225.937 28.5445 225.937 30.8822C225.937 33.3839 225.567 35.6396 224.828 37.6492C224.09 39.6178 223.002 41.2993 221.565 42.6937C220.169 44.0881 218.445 45.1545 216.393 45.8927C214.381 46.6309 212.103 47 209.558 47C206.767 47 204.345 46.6104 202.292 45.8312C200.24 45.0109 198.536 43.9036 197.182 42.5092C195.827 41.0737 194.821 39.3717 194.165 37.4031C193.508 35.3935 193.18 33.2199 193.18 30.8822ZM202.723 30.8822C202.723 32.7277 202.826 34.4298 203.031 35.9882C203.278 37.5057 203.688 38.7976 204.263 39.8639C204.837 40.9302 205.617 41.7709 206.603 42.3861C207.588 42.9603 208.86 43.2474 210.42 43.2474C211.323 43.2474 212.144 43.0423 212.883 42.6322C213.622 42.1811 214.258 41.4839 214.792 40.5406C215.326 39.5563 215.716 38.2849 215.962 36.7264C216.249 35.127 216.393 33.1789 216.393 30.8822C216.393 28.9956 216.27 27.2936 216.023 25.7762C215.818 24.2587 215.428 22.9668 214.853 21.9005C214.32 20.8342 213.581 20.014 212.637 19.4398C211.693 18.8246 210.502 18.517 209.066 18.517C207.998 18.517 207.075 18.7426 206.295 19.1937C205.515 19.6038 204.858 20.301 204.324 21.2853C203.791 22.2286 203.38 23.5 203.093 25.0995C202.847 26.6579 202.723 28.5855 202.723 30.8822Z" fill="black"/>
<path d="M224.013 16.9791C225.572 15.9948 227.214 15.2976 228.938 14.8874V9.90445C229.267 9.65838 230.067 9.30977 231.34 8.85864C232.653 8.36649 234.111 7.97688 235.712 7.68979H237.805V15.5026H245.933V19.3783H237.805V35.3115C237.805 37.8543 238.113 39.6178 238.729 40.6021C239.386 41.5864 240.453 42.0785 241.931 42.0785C242.669 42.0785 243.49 42.0375 244.394 41.9555C245.338 41.8325 246.2 41.6274 246.98 41.3403L247.411 43.3704C247.041 43.7395 246.487 44.1291 245.748 44.5393C245.05 44.9494 244.229 45.339 243.285 45.7081C242.382 46.0772 241.376 46.3848 240.268 46.6309C239.201 46.877 238.072 47 236.881 47C234.213 47 232.222 46.3028 230.909 44.9084C229.595 43.514 228.938 41.2583 228.938 38.1414V19.3783H224.013V16.9791Z" fill="black"/>
<path d="M245.712 30.8822C245.712 28.3805 246.081 26.1453 246.82 24.1767C247.6 22.1671 248.688 20.4651 250.084 19.0707C251.52 17.6763 253.245 16.6099 255.256 15.8717C257.267 15.1335 259.546 14.7644 262.091 14.7644C264.964 14.7644 267.427 15.1745 269.48 15.9948C271.573 16.774 273.277 17.8813 274.59 19.3168C275.945 20.7112 276.93 22.4132 277.546 24.4228C278.161 26.3914 278.469 28.5445 278.469 30.8822C278.469 33.3839 278.1 35.6396 277.361 37.6492C276.622 39.6178 275.534 41.2993 274.098 42.6937C272.702 44.0881 270.978 45.1545 268.925 45.8927C266.914 46.6309 264.636 47 262.091 47C259.299 47 256.877 46.6104 254.825 45.8312C252.772 45.0109 251.069 43.9036 249.714 42.5092C248.36 41.0737 247.354 39.3717 246.697 37.4031C246.04 35.3935 245.712 33.2199 245.712 30.8822ZM255.256 30.8822C255.256 32.7277 255.359 34.4298 255.564 35.9882C255.81 37.5057 256.221 38.7976 256.795 39.8639C257.37 40.9302 258.15 41.7709 259.135 42.3861C260.12 42.9603 261.393 43.2474 262.953 43.2474C263.856 43.2474 264.677 43.0423 265.416 42.6322C266.155 42.1811 266.791 41.4839 267.324 40.5406C267.858 39.5563 268.248 38.2849 268.494 36.7264C268.782 35.127 268.925 33.1789 268.925 30.8822C268.925 28.9956 268.802 27.2936 268.556 25.7762C268.351 24.2587 267.961 22.9668 267.386 21.9005C266.852 20.8342 266.113 20.014 265.169 19.4398C264.225 18.8246 263.035 18.517 261.598 18.517C260.531 18.517 259.607 18.7426 258.827 19.1937C258.047 19.6038 257.391 20.301 256.857 21.2853C256.323 22.2286 255.913 23.5 255.625 25.0995C255.379 26.6579 255.256 28.5855 255.256 30.8822Z" fill="black"/>
<path d="M293.786 39.5563C293.786 38.49 293.396 37.5672 292.616 36.788C291.877 36.0087 290.933 35.291 289.783 34.6348C288.675 33.9786 287.444 33.3224 286.089 32.6662C284.775 32.01 283.544 31.2513 282.395 30.3901C281.286 29.4878 280.342 28.442 279.562 27.2526C278.823 26.0633 278.454 24.6073 278.454 22.8848C278.454 21.6545 278.741 20.5471 279.316 19.5628C279.891 18.5375 280.671 17.6763 281.656 16.9791C282.641 16.2818 283.811 15.7487 285.165 15.3796C286.561 14.9695 288.059 14.7644 289.66 14.7644C291.877 14.7644 293.929 14.949 295.818 15.3181C297.747 15.6462 299.43 16.1178 300.867 16.733C300.703 18.0454 300.374 19.4603 299.882 20.9777C299.389 22.4542 298.917 23.8076 298.465 25.038H296.372L293.786 18.7631C293.293 18.558 292.78 18.435 292.246 18.394C291.713 18.312 291.118 18.2709 290.461 18.2709C289.229 18.2709 288.285 18.6401 287.628 19.3783C287.013 20.0755 286.705 20.8752 286.705 21.7775C286.705 22.8028 287.074 23.7051 287.813 24.4843C288.593 25.2225 289.537 25.9197 290.646 26.5759C291.795 27.2321 293.026 27.8883 294.34 28.5445C295.695 29.2007 296.926 29.9594 298.034 30.8207C299.184 31.6409 300.128 32.6252 300.867 33.7736C301.647 34.9219 302.037 36.2958 302.037 37.8953C302.037 40.7251 300.887 42.9603 298.589 44.6008C296.29 46.2003 293.211 47 289.352 47C287.382 47 285.35 46.7949 283.257 46.3848C281.163 45.9747 279.357 45.4005 277.838 44.6623C277.92 43.1859 278.269 41.6889 278.885 40.1715C279.501 38.654 280.157 37.3006 280.855 36.1113H282.949L285.966 42.8168C286.417 43.1449 286.91 43.3499 287.444 43.4319C288.018 43.4729 288.552 43.4935 289.045 43.4935C290.235 43.4935 291.323 43.1449 292.308 42.4476C293.293 41.7504 293.786 40.7867 293.786 39.5563Z" fill="black"/>
<path d="M313 5.24957C313 8.08087 310.703 10.3761 307.869 10.3761C305.035 10.3761 302.738 8.08087 302.738 5.24957C302.738 2.41826 305.035 0.123039 307.869 0.123039C310.703 0.123039 313 2.41826 313 5.24957Z" fill="#DD0A0A"/>
</svg>
